<svg width="41" height="40" viewBox="0 0 41 40" fill="none" xmlns="http://www.w3.org/2000/svg">
<path fill-rule="evenodd" clip-rule="evenodd" d="M17.7578 0.135875C21.9876 -0.705086 25.0559 2.50586 25.0559 5.68058V33.8467C25.0559 37.0215 21.9876 40.2324 17.7578 39.3914C7.5942 37.3715 0 29.3522 0 19.7637C0 10.1751 7.5942 2.15579 17.7578 0.135875ZM30.2789 12.3057C30.706 11.9285 31.2853 11.7166 31.8893 11.7166C32.4933 11.7166 33.0725 11.9285 33.4997 12.3057L40.3331 18.3413C40.7601 18.7185 41 19.2302 41 19.7637C41 20.2971 40.7601 20.8088 40.3331 21.1861L33.4997 27.2217C33.0701 27.5881 32.4947 27.7909 31.8975 27.7863C31.3002 27.7817 30.7289 27.5702 30.3066 27.1971C29.8843 26.8241 29.6447 26.3195 29.6395 25.792C29.6343 25.2645 29.8639 24.7563 30.2789 24.3769L33.2241 21.7755H13.6668C13.0627 21.7755 12.4833 21.5636 12.0562 21.1863C11.629 20.809 11.389 20.2972 11.389 19.7637C11.389 19.2301 11.629 18.7184 12.0562 18.3411C12.4833 17.9638 13.0627 17.7518 13.6668 17.7518H33.2241L30.2789 15.1504C29.8518 14.7732 29.6119 14.2615 29.6119 13.7281C29.6119 13.1946 29.8518 12.6829 30.2789 12.3057Z" fill="black"/>
</svg>
